{"title":"Ondine.2009.SWESUB.DVDRip.XviD.AC3(5,1)-Zen_Bud","uid":5801401,"size":1470581462,"categoryP":"video","categoryS":"movies","magnet":"?xt=urn:btih:69641056b8fd9fd8419175e0a7f50491c56e788f&amp;dn=Ondine.2009.SWESUB.DVDRip.XviD.AC3%285%2C1%29-Zen_Bud&amp;tr=udp%3A%2F%2Ftracker.openbittorrent.com%3A80&amp;tr=udp%3A%2F%2Fopen.demonii.com%3A1337&amp;tr=udp%3A%2F%2Ftracker.coppersurfer.tk%3A6969&amp;tr=udp%3A%2F%2Fexodus.desync.com%3A6969","seeders":0,"leechers":0,"uploader":"Zen_Bud","files":-1,"time":1283269817,"description":"\nComplete name                    : Ondine (2009).avi\nFormat                           : AVI\nFile size                        : 1.37 GiB\nDuration                         : 1h 38mn\nOverall bit rate                 : 1 981 Kbps\n\nVideo\n\nFormat                           : MPEG-4 Visual\nCodec ID/Hint                    : XviD\nDuration                         : 1h 38mn\nBit rate                         : 1 522 Kbps\nWidth                            : 720 pixels\nHeight                           : 574 pixels\nDisplay aspect ratio             : 16:9\nStream size                      : 1.05 GiB (77%)\nWriting library                  : XviD 1.1.2 (UTC 2006-11-01)\n\nAudio\n\nFormat                           : AC-3\nDuration                         : 1h 38mn\nBit rate                         : 448 Kbps\nChannel(s)                       : 6 channels\nChannel positions                : Front: L C R, Side: L R, LFE\nSampling rate                    : 48.0 KHz\nBit depth                        : 16 bits\nStream size                      : 317 MiB (23%)\n\n\n","torrent":{"xt":"urn:btih:69641056b8fd9fd8419175e0a7f50491c56e788f","amp;dn":"Ondine.2009.SWESUB.DVDRip.XviD.AC3%285%2C1%29-Zen_Bud","amp;tr":["udp%3A%2F%2Ftracker.openbittorrent.com%3A80","udp%3A%2F%2Fopen.demonii.com%3A1337","udp%3A%2F%2Ftracker.coppersurfer.tk%3A6969","udp%3A%2F%2Fexodus.desync.com%3A6969"],"infoHash":"69641056b8fd9fd8419175e0a7f50491c56e788f","infoHashBuffer":{"type":"Buffer","data":[105,100,16,86,184,253,159,216,65,145,117,224,167,245,4,145,197,110,120,143]},"announce":[],"urlList":[]}}